<?xml version="1.0" encoding="UTF-8" standalone="no"?>
<svg
   width="440px"
   height="280px"
   viewBox="0 0 440 280"
   version="1.1"
   style="background: #FFFFFF;"
   id="svg14"
   sodipodi:docname="promo_tile.svg"
   inkscape:version="1.2 (dc2aedaf03, 2022-05-15)"
   xmlns:inkscape="http://www.inkscape.org/namespaces/inkscape"
   xmlns:sodipodi="http://sodipodi.sourceforge.net/DTD/sodipodi-0.dtd"
   xmlns="http://www.w3.org/2000/svg"
   xmlns:svg="http://www.w3.org/2000/svg">
  <defs
     id="defs18">
    <rect
       x="20.494142"
       y="191.72462"
       width="411.00581"
       height="85.736718"
       id="rect32539" />
    <rect
       x="14.061783"
       y="24.186266"
       width="404.97934"
       height="120.93133"
       id="rect18689" />
  </defs>
  <sodipodi:namedview
     id="namedview16"
     pagecolor="#ffffff"
     bordercolor="#eeeeee"
     borderopacity="1"
     inkscape:showpageshadow="0"
     inkscape:pageopacity="1"
     inkscape:pagecheckerboard="0"
     inkscape:deskcolor="#505050"
     showgrid="false"
     inkscape:zoom="1.4142136"
     inkscape:cx="221.67798"
     inkscape:cy="145.31044"
     inkscape:window-width="1366"
     inkscape:window-height="750"
     inkscape:window-x="0"
     inkscape:window-y="18"
     inkscape:window-maximized="1"
     inkscape:current-layer="svg14" />
  <path
     id="rect36815"
     style="fill:none;stroke:#000000;stroke-width:4;stroke-dasharray:none"
     d="m 337.65664,128.44106 h 64 c 0,0 0,0 0,0 v 48 c 0,0 0,0 0,0 h -64 c 0,0 0,0 0,0 v -48 c 0,0 0,0 0,0 z m -24,-24 h 64 v 48 h -64 z" />
  <path
     id="path6934"
     style="fill:none;stroke:#000000;stroke-width:4;stroke-linecap:butt;stroke-linejoin:miter;stroke-dasharray:none;stroke-opacity:1"
     d="m 85.456084,105.71502 v 23.15882 m -42.587266,0.99224 h 86.237992 m -87.650725,-24 h 87.999995 v 0 72 0 H 41.456085 v 0 z"
     sodipodi:nodetypes="cccccccccccc" />
  <path
     id="path13477-3"
     style="fill:none;stroke:#000000;stroke-width:4;stroke-linecap:butt;stroke-linejoin:miter;stroke-dasharray:none;stroke-opacity:1"
     d="m 271.14313,150.48543 h -96 l 32,24 m -37.4375,-40 h 96 l -32,-24"
     sodipodi:nodetypes="cccccc" />
  <text
     xml:space="preserve"
     id="text18687"
     style="font-size:37.3333px;line-height:1.25;font-family:'Noto Sans';-inkscape-font-specification:'Noto Sans';white-space:pre;shape-inside:url(#rect18689)"
     x="170.59998"
     y="0"
     transform="translate(3.4819652,5.8122029)"><tspan
       x="26.133249"
       y="58.154191"
       id="tspan34012"><tspan
         style="text-align:center;text-anchor:middle"
         id="tspan34010">TAB-LESS TOGGLABLE</tspan></tspan></text>
  <text
     xml:space="preserve"
     id="text32537"
     style="font-size:18.6667px;line-height:1.25;font-family:'Noto Sans';-inkscape-font-specification:'Noto Sans';white-space:pre;shape-inside:url(#rect32539)"
     transform="translate(0.83668979,15.327264)"><tspan
       x="20.494141"
       y="208.70898"
       id="tspan34014">Turn tabs off for tab-less browsing.
</tspan><tspan
       x="20.494141"
       y="232.04235"
       id="tspan34016">Turn tabs back on with the press of a button.</tspan></text>
</svg>
